<?xml version="1.0" standalone="no"?>
<!DOCTYPE svg PUBLIC "-//W3C//DTD SVG 20010904//EN"
 "http://www.w3.org/TR/2001/REC-SVG-20010904/DTD/svg10.dtd">
<svg version="1.0" xmlns="http://www.w3.org/2000/svg"
 width="700.000000pt" height="700.000000pt" viewBox="0 0 700.000000 700.000000"
 preserveAspectRatio="xMidYMid meet">
<metadata>
Created by potrace 1.14, written by Peter Selinger 2001-2017
</metadata>
<g transform="translate(0.000000,700.000000) scale(0.100000,-0.100000)"
fill="#000000" stroke="none">
<path d="M3317 6639 c-211 -18 -464 -88 -655 -179 -401 -192 -702 -483 -913
-884 -58 -110 -60 -114 -97 -118 -108 -15 -223 -105 -275 -216 l-32 -67 0
-495 0 -495 27 -57 c52 -112 178 -210 286 -225 37 -5 41 -9 65 -63 72 -167
230 -392 388 -549 309 -309 706 -504 1144 -561 125 -16 389 -14 517 4 429 61
813 253 1117 557 158 158 316 382 388 549 24 54 28 58 65 63 108 15 234 113
286 225 l27 57 0 495 0 495 -32 67 c-52 111 -166 201 -272 215 -40 6 -41 7
-100 119 -33 62 -85 151 -116 197 -398 599 -1094 931 -1818 866z m1099 -1184
c227 -53 401 -230 450 -455 18 -87 18 -366 -1 -491 -63 -418 -347 -775 -739
-928 -175 -68 -212 -73 -576 -78 -349 -5 -423 1 -572 43 -192 54 -361 154
-509 303 -185 185 -296 403 -335 661 -18 123 -18 403 0 490 47 222 222 401
445 455 85 20 1750 21 1837 0z"/>
<path d="M1975 2681 c-665 -326 -1115 -952 -1210 -1684 -22 -176 -20 -342 6
-412 29 -78 111 -164 191 -201 l63 -29 648 -3 647 -3 0 429 c0 404 1 431 20
488 39 113 120 195 238 241 l57 22 861 0 c839 1 862 1 920 -19 115 -40 204
-129 244 -244 19 -57 20 -84 20 -488 l0 -429 648 3 647 3 62 29 c74 34 154
113 186 183 46 102 31 411 -33 671 -152 621 -577 1153 -1145 1434 -183 91
-163 89 -253 30 -305 -199 -645 -322 -1009 -367 -186 -23 -492 -17 -668 14
-316 54 -609 166 -882 337 -55 35 -105 64 -110 64 -4 0 -71 -31 -148 -69z"/>
</g>
</svg>
